<svg version="1.1" id="Layer_1" xmlns="http://www.w3.org/2000/svg" xmlns:xlink="http://www.w3.org/1999/xlink" x="0px" y="0px"
	 width="100%" viewBox="0 0 1024 1024" enable-background="new 0 0 1024 1024" xml:space="preserve">
<path fill="#000000" opacity="1.000000" stroke="none" 
	d="
M660.628662,186.348969 
	C706.979370,225.200256 755.175781,261.254639 800.008057,301.384430 
	C800.445923,301.776337 800.606262,302.478210 801.150574,303.524475 
	C797.155151,304.300415 795.003113,302.218719 792.716187,300.014343 
	C786.154175,293.689240 779.676514,287.250244 772.772400,281.313293 
	C764.298767,274.026733 754.045288,269.290314 744.970642,262.825470 
	C742.406921,260.999054 739.664612,259.325439 736.798462,258.040924 
	C729.932678,254.963837 725.759216,249.121552 721.266174,243.569138 
	C720.743103,242.922714 720.368103,241.807968 719.737854,241.648666 
	C708.769226,238.876144 705.010925,227.170013 695.715271,222.319962 
	C693.885254,221.365128 692.158875,220.703308 689.451904,220.803207 
	C692.260681,226.430252 696.349670,230.753174 699.522644,235.659485 
	C717.342468,263.213928 735.110596,290.801880 752.960144,318.337036 
	C764.114197,335.543579 774.824585,352.998749 783.448975,371.644562 
	C792.485718,391.181824 799.349670,411.461273 804.365723,432.399353 
	C807.630737,446.028412 807.841248,460.079834 810.377991,473.761108 
	C813.020813,488.014526 812.157715,502.250977 811.896606,516.502808 
	C811.756836,524.132935 810.574707,531.747437 809.767944,539.358948 
	C809.617554,540.777710 809.439636,542.364685 807.524597,543.387146 
	C806.298950,538.613770 807.696594,534.130554 808.438965,529.725281 
	C809.477051,523.565491 808.826843,517.818420 805.934692,512.304382 
	C803.097656,506.895538 804.093384,500.861725 803.301636,495.135193 
	C802.421509,488.769348 799.259888,482.715088 800.608337,476.023895 
	C800.806946,475.038361 800.181824,473.992920 799.266541,473.494751 
	C796.679932,472.086945 796.380798,469.618988 796.072693,467.107849 
	C794.990295,458.285400 792.713501,449.874817 787.384399,442.563202 
	C783.605713,437.379028 785.485046,430.840515 783.141602,425.271942 
	C781.803467,422.092133 781.055542,418.632935 781.262878,415.092560 
	C781.319946,414.118042 781.326172,413.046478 781.737244,412.206146 
	C782.628174,410.385101 785.139099,409.536835 784.458435,406.729553 
	C782.895874,400.285034 782.386719,393.411102 778.171509,387.986176 
	C774.829407,383.684967 770.851746,380.125366 771.077393,373.819519 
	C771.186035,370.784241 768.671082,367.763367 766.030273,366.074585 
	C760.442688,362.501465 758.827637,356.977142 758.207581,351.143127 
	C757.384766,343.400299 751.409241,338.423309 748.575500,331.779022 
	C747.448120,329.135620 744.912537,330.408142 743.243164,331.921204 
	C741.367554,330.311462 742.288086,328.542084 742.070496,326.994110 
	C741.863892,325.524139 742.150330,323.557007 741.310242,322.672455 
	C735.287231,316.330261 734.177063,307.807739 731.054016,300.207336 
	C728.007019,292.791992 722.102478,287.861023 716.524109,282.666748 
	C703.588074,270.621429 689.492432,260.107971 674.945374,250.022812 
	C653.655334,235.262863 630.061096,225.628555 606.165344,216.430511 
	C603.523071,215.413406 600.744324,214.664886 597.888367,215.760910 
	C596.895386,216.141983 596.018127,216.151627 595.045776,215.595490 
	C588.484985,211.842651 581.212708,209.896179 574.122864,207.504242 
	C572.414368,206.927856 571.057068,206.260986 570.700806,204.345093 
	C570.309814,202.242889 572.091980,202.055511 573.295410,201.265045 
	C576.610596,199.087585 579.674622,196.452576 583.901855,196.125549 
	C584.510315,196.078491 585.471069,195.677551 585.611755,195.232590 
	C587.519836,189.200500 593.426819,187.444397 597.620483,183.877502 
	C599.569092,182.220169 600.088928,180.015182 600.359741,177.653580 
	C600.691956,174.756485 600.640991,171.693192 604.407837,170.100677 
	C601.856079,168.676117 599.630188,169.592133 597.815796,167.723511 
	C592.195312,161.935043 592.019043,159.508972 598.344543,154.464935 
	C600.784485,152.519318 600.912781,151.454117 598.709412,149.022812 
	C593.613403,143.399841 586.291992,141.381363 580.432556,137.022141 
	C578.212402,135.370438 575.251099,135.674347 573.821289,138.986053 
	C572.812622,141.322372 570.880676,143.014313 568.892944,140.856079 
	C565.892578,137.598389 562.290894,136.064926 558.250793,134.944885 
	C557.392578,134.706940 556.726379,133.775940 555.619629,132.878815 
	C560.955505,128.623764 557.376892,125.856194 553.546509,122.857788 
	C556.277832,121.516068 558.180664,122.841591 559.966125,123.558083 
	C582.597900,132.640228 604.232666,143.572693 624.135071,157.811798 
	C636.615356,166.740723 648.471313,176.442200 660.628662,186.348969 
z"/>
<path fill="#000000" opacity="1.000000" stroke="none" 
	d="
M337.584045,691.334473 
	C346.708221,697.744812 356.538239,702.415894 364.919495,709.255676 
	C368.899841,712.503967 373.481171,713.591492 378.385071,713.765137 
	C381.688110,713.882080 384.752716,714.159302 386.252106,717.770935 
	C386.484222,718.330078 387.238892,719.181702 387.585114,719.108521 
	C394.075592,717.736938 400.110168,722.934204 406.664124,720.383667 
	C410.251007,718.987732 414.203827,719.826416 417.886444,718.421265 
	C420.805817,717.307312 422.984406,716.085266 422.792236,711.814758 
	C431.171112,714.696167 436.555054,720.353088 442.126770,725.272156 
	C441.489532,728.249756 438.260773,727.559875 437.780029,729.938904 
	C440.993408,735.990906 444.543304,741.439514 452.324432,742.727051 
	C459.687103,743.945435 460.133545,743.937073 459.946503,736.563477 
	C463.853607,736.991577 467.026978,739.140808 470.397888,740.648621 
	C478.448883,744.249817 486.437042,747.991638 494.447876,751.682556 
	C501.772797,755.057434 509.444611,753.965698 517.072144,753.452759 
	C524.702332,752.939636 532.332275,752.423218 539.962585,751.911377 
	C542.521240,751.739746 544.118591,752.393860 545.171387,755.254639 
	C547.350769,761.176819 558.971863,766.759827 564.506714,764.302185 
	C569.484436,762.091919 574.429871,761.810364 579.616577,762.061218 
	C584.018494,762.274109 587.897949,761.732117 589.593201,756.627991 
	C590.356506,754.329895 592.703247,753.105347 594.956238,752.462891 
	C598.252991,751.522949 600.453674,752.393494 600.575256,756.438843 
	C600.878174,766.516113 605.968567,770.085815 615.554749,767.168274 
	C619.375793,766.005310 623.289368,765.118713 627.049255,763.790405 
	C630.702637,762.499695 634.299866,760.659607 635.706604,756.777954 
	C637.175781,752.724182 640.066711,751.808533 643.852356,751.604858 
	C650.499146,751.247253 657.134827,750.673828 663.771667,750.146423 
	C666.744751,749.910034 669.241760,748.719727 670.892578,746.121582 
	C672.779785,743.151428 675.576660,741.798401 678.956787,742.101135 
	C683.970093,742.550293 689.367004,740.573792 693.903320,744.297119 
	C694.021240,744.394043 694.244629,744.478333 694.370300,744.433289 
	C701.686401,741.810364 709.926270,745.269958 716.966431,741.107361 
	C722.301086,737.953186 727.849792,736.077332 734.102539,737.268738 
	C736.571777,737.739136 737.802002,736.518066 738.650513,734.420654 
	C739.710815,731.799500 740.872742,729.218628 742.023682,726.634949 
	C744.198669,721.752441 749.459412,719.595093 754.785522,721.402222 
	C755.506653,723.120483 754.091064,724.157410 753.441101,725.425659 
	C752.755554,726.763489 751.927307,728.047974 752.576904,729.693054 
	C754.039856,730.906372 755.558289,730.166931 756.679871,729.332031 
	C761.113342,726.032043 767.736511,725.644470 769.981689,719.310242 
	C770.197937,718.700073 772.339417,718.131775 773.175415,718.494080 
	C776.542603,719.953491 779.513306,718.835327 782.519043,717.269470 
	C782.742493,717.622925 782.965881,717.976318 783.189331,718.329712 
	C780.013062,720.963806 777.022705,723.870850 773.627319,726.183105 
	C761.218262,734.633362 748.018005,741.707092 734.393066,747.984863 
	C729.361572,750.303101 724.750427,753.065369 721.055298,757.356750 
	C719.304688,759.389832 716.828064,760.797791 714.399902,762.148682 
	C715.517578,758.954163 718.628113,757.726379 721.301880,754.764954 
	C715.146912,755.491333 710.336792,758.006897 705.382202,759.679810 
	C678.264099,768.836548 650.219727,773.408264 622.016968,777.436279 
	C602.751831,780.187805 583.573730,783.543762 564.342407,786.537354 
	C536.566040,790.861206 508.749908,794.937073 481.006378,799.459900 
	C470.163269,801.227600 459.346283,803.025940 448.393005,803.915100 
	C444.453094,804.234985 440.507568,804.670837 436.394226,802.708618 
	C442.488068,801.145630 448.509338,799.160950 454.689148,798.097290 
	C474.786255,794.638306 495.326447,794.515747 515.172607,788.709290 
	C530.303955,784.282288 546.181335,782.874084 561.797180,780.521851 
	C565.773193,779.922913 569.178467,777.954956 572.338074,774.735413 
	C567.501160,771.977783 562.414124,772.282593 557.645325,771.482605 
	C527.955444,766.502136 498.264648,761.514587 468.519897,756.877380 
	C444.475464,753.128845 420.660645,748.515625 397.624023,740.502991 
	C379.509064,734.202332 361.992981,726.464539 345.327759,717.001526 
	C329.991882,708.293335 315.144623,698.644592 301.958710,686.916443 
	C290.815460,677.005188 278.669312,667.998840 269.984985,655.532410 
	C269.055145,654.197571 267.560669,653.176147 268.096344,650.798035 
	C271.278046,651.707397 274.308441,651.009888 277.442322,650.105530 
	C281.005066,649.077393 282.988647,650.557739 283.089569,654.687317 
	C283.233398,660.574646 285.160248,665.742249 290.460480,669.192932 
	C291.804535,670.067993 292.861603,671.506653 293.799927,672.860107 
	C297.224762,677.800232 302.255463,680.262024 307.742493,681.921326 
	C313.031281,683.520691 320.210419,681.904358 321.210449,691.038391 
	C323.167847,685.767029 317.600067,682.766113 319.311707,676.901611 
	C323.120728,685.347534 329.790375,688.824097 337.584045,691.334473 
z"/>
<path fill="#000000" opacity="1.000000" stroke="none" 
	d="
M307.783386,411.204895 
	C308.891541,409.559204 309.059540,407.691956 311.246796,406.673187 
	C311.111816,411.302429 318.765350,409.503082 317.678711,415.576416 
	C315.081024,414.445404 314.307709,415.688660 313.370636,418.012695 
	C309.582367,427.408051 308.625305,437.563721 307.871521,447.230804 
	C306.739166,461.753174 304.407013,476.510101 307.520447,491.184387 
	C308.391876,495.291840 308.168671,499.251770 303.227051,501.056274 
	C302.525269,501.312561 301.691437,502.082001 301.514618,502.767609 
	C299.460724,510.732697 293.233093,517.133240 293.006989,525.792358 
	C292.856934,531.539734 290.460785,537.129150 292.170959,543.064514 
	C292.685028,544.848755 293.008820,546.229187 294.861725,546.697693 
	C299.016327,547.748291 299.323944,550.862854 298.607666,554.158325 
	C297.576172,558.903931 298.037903,563.256897 300.003448,567.764221 
	C302.231689,572.873962 298.353302,576.773132 295.820435,580.372803 
	C293.093018,584.248962 292.536652,587.840820 294.287903,591.920227 
	C296.712311,597.567810 297.361725,603.442566 297.039642,609.493286 
	C296.886749,612.365723 297.542328,614.792908 300.493744,616.039551 
	C300.940613,616.228333 301.445648,616.524536 301.687775,616.916809 
	C306.979462,625.488220 313.068695,633.623108 316.198730,643.383240 
	C317.123016,646.265442 316.459259,648.083740 313.324188,649.056824 
	C309.176910,650.343994 308.699921,653.308777 310.228973,657.009705 
	C311.608368,660.348511 312.844635,663.746338 314.243896,667.377197 
	C312.170105,667.562744 311.994354,666.187073 311.564087,665.300049 
	C303.843994,649.385864 297.851410,632.903137 294.009186,615.571960 
	C287.338470,585.482239 283.738190,554.897766 278.752625,524.538147 
	C274.817505,500.575500 271.149597,476.568939 267.400421,452.576019 
	C267.023071,450.161224 266.212189,447.707825 267.267487,445.264648 
	C269.027008,445.014374 269.213043,446.354950 269.551941,447.400970 
	C272.408722,456.217834 273.159485,465.657684 277.545441,474.046051 
	C278.155670,475.213135 277.858246,477.009460 277.605377,478.448486 
	C275.736450,489.083801 278.534485,499.294647 280.340912,509.593536 
	C280.518768,510.607544 281.188782,511.396484 282.375977,511.466614 
	C284.499207,511.029236 283.467621,508.449432 286.120422,506.957550 
	C282.127930,520.230835 284.070679,532.644836 285.865540,546.254456 
	C288.575897,543.403748 288.617523,540.982300 288.706146,538.828308 
	C289.666901,515.472595 294.143463,492.596344 297.937592,469.623627 
	C300.919189,451.570465 303.790009,433.499023 306.731232,415.439178 
	C306.944153,414.131683 307.330231,412.852417 307.783386,411.204895 
z"/>
<path fill="#000000" opacity="1.000000" stroke="none" 
	d="
M428.303314,171.401337 
	C426.081573,172.003906 424.692841,172.882416 424.034302,174.917542 
	C421.748749,181.980743 416.291473,185.375961 409.515015,187.237167 
	C393.357422,191.674988 376.665955,194.821320 361.973175,203.228729 
	C355.519012,206.921890 348.555115,209.552002 342.333832,213.561981 
	C336.043060,217.616760 329.944519,221.973434 323.819122,226.279373 
	C320.937347,228.305145 319.303741,231.170837 319.159454,234.725433 
	C318.997498,238.716034 316.863892,240.197357 313.045746,240.257492 
	C304.047150,240.399200 298.224304,246.425430 291.584015,251.418350 
	C285.476837,256.010406 283.310852,261.580750 283.243774,268.673309 
	C283.221252,271.054474 282.006073,273.117706 279.572418,273.403687 
	C272.340179,274.253448 265.063324,274.773285 260.060486,281.675659 
	C260.937622,276.180603 263.447693,272.129089 266.831329,268.491089 
	C288.723969,244.952682 313.734833,225.365051 341.219269,208.733368 
	C364.431641,194.686859 387.210510,179.925583 410.348633,165.753998 
	C418.139069,160.982513 426.422516,157.010132 434.530426,152.767654 
	C436.229950,151.878357 438.046539,150.823105 440.871368,151.956619 
	C436.895691,158.604401 436.923309,167.380951 428.303314,171.401337 
M422.369171,166.649048 
	C420.151459,166.913696 418.935516,168.246170 418.144226,170.393616 
	C420.288849,170.969238 422.386383,172.041046 424.000244,170.540924 
	C425.328735,169.306000 424.360077,167.798721 422.369171,166.649048 
z"/>
<path fill="#000000" opacity="1.000000" stroke="none" 
	d="
M814.024719,587.846558 
	C810.377380,607.759583 806.354187,627.131348 799.399963,645.764648 
	C798.413879,648.406738 797.272705,650.927673 795.156006,653.539246 
	C793.299072,649.608826 792.904907,645.323486 794.750732,642.711426 
	C799.688843,635.723389 797.263367,628.980286 795.471313,622.142700 
	C794.602234,618.826782 793.413330,615.962830 798.154236,614.874329 
	C798.823364,614.720703 799.661194,613.869507 799.831909,613.192505 
	C802.365356,603.148193 807.745972,593.596680 805.248474,582.668396 
	C805.183472,582.383911 804.860229,582.158447 804.447754,581.643799 
	C801.759094,582.014771 801.749390,584.454712 801.095825,586.339661 
	C795.223206,603.276123 789.862915,620.415894 781.362122,636.310669 
	C780.617798,637.702454 780.385010,639.586304 778.168030,640.167969 
	C775.748779,637.634521 777.460693,634.137207 776.307678,631.354492 
	C773.163269,623.765564 776.388245,618.018982 780.817688,611.924683 
	C786.469238,604.148743 791.138000,595.652222 796.118530,587.398743 
	C797.627869,584.897400 798.554810,582.561951 797.632019,579.078613 
	C796.709900,575.597473 798.769897,571.748413 801.116577,568.825256 
	C803.784302,568.685486 802.483215,571.901733 805.830627,572.273926 
	C817.157471,540.339905 824.526062,507.268463 828.068481,472.868988 
	C830.800171,474.661560 830.091797,476.986877 830.097839,478.976624 
	C830.156616,498.397522 826.170898,517.318970 822.913818,536.328186 
	C819.995117,553.362366 817.040222,570.390381 814.024719,587.846558 
z"/>
<path fill="#000000" opacity="1.000000" stroke="none" 
	d="
M700.521545,602.236938 
	C702.351135,604.884644 700.658936,606.114014 699.048523,607.406555 
	C694.501282,611.056396 689.523071,614.031189 684.592102,617.129456 
	C669.523560,626.597290 654.697144,636.449646 639.732239,646.083557 
	C630.659668,651.924072 621.519531,657.660339 612.373779,663.385986 
	C610.748047,664.403748 609.076904,665.573914 606.968445,665.312561 
	C606.159241,663.052307 607.621887,661.869141 608.792725,660.886475 
	C614.077637,656.450806 618.877930,651.469543 625.537231,648.727478 
	C629.585632,647.060486 633.521423,644.470215 635.547058,640.151611 
	C636.246033,638.661560 637.265625,637.718201 638.672180,637.128235 
	C644.669556,634.612549 649.314026,630.360596 653.454224,625.518677 
	C660.462158,617.322937 668.568726,610.163513 674.967285,601.345215 
	C680.544922,593.658508 683.589844,593.442566 692.026184,597.531738 
	C694.842529,598.896851 698.121094,599.424805 700.521545,602.236938 
z"/>
<path fill="#000000" opacity="1.000000" stroke="none" 
	d="
M265.613281,326.623322 
	C260.132050,332.331970 257.141602,339.733612 250.434464,343.940704 
	C248.378586,345.230286 248.598495,348.079834 246.950317,350.233612 
	C244.635239,348.229065 245.135437,346.177338 246.088531,343.964142 
	C247.805923,339.976105 250.992584,337.354034 253.918564,334.283813 
	C260.322113,327.564606 266.130554,320.184143 271.431641,312.552460 
	C273.707397,309.276123 277.325409,307.702271 279.324188,304.425842 
	C285.145691,294.883301 292.712158,286.666595 299.923706,278.259155 
	C313.455261,262.483612 325.352203,245.383987 339.421967,230.062698 
	C340.421387,228.974350 341.200958,227.684082 342.241547,226.272339 
	C343.904175,228.336563 342.998444,229.314224 342.337677,230.025314 
	C338.137695,234.544998 336.078949,240.488693 332.045654,245.156708 
	C329.352478,248.273727 326.255371,251.974823 333.151855,255.544052 
	C326.622864,258.333191 324.904938,265.599762 317.920288,267.069275 
	C316.274719,267.415497 314.969818,270.943176 314.133392,273.235382 
	C312.568176,277.524689 309.463501,280.818054 307.202942,285.853149 
	C306.074127,281.612701 304.105835,282.512878 302.540009,284.197845 
	C296.971222,290.190186 289.970062,295.273804 289.868134,304.755371 
	C289.825439,308.724884 287.062469,308.665344 284.191284,307.541290 
	C283.259064,307.176331 282.917084,305.299652 281.375214,306.456177 
	C285.717255,312.493713 284.424194,316.108276 277.002014,318.211029 
	C272.228394,319.563446 269.284485,323.261475 265.613281,326.623322 
z"/>
<path fill="#000000" opacity="1.000000" stroke="none" 
	d="
M184.507980,267.170898 
	C184.778778,269.154938 185.108109,270.763397 185.443954,272.373413 
	C185.272980,272.645569 185.113525,273.138428 184.915344,273.154510 
	C178.806015,273.650696 177.675751,277.415131 178.049683,282.758057 
	C178.409195,287.895050 177.982422,293.081970 178.118240,298.241272 
	C178.236130,302.719971 176.547424,305.551331 171.962234,306.474426 
	C169.519302,306.966217 167.137589,307.763306 164.729752,308.428070 
	C161.826263,309.229706 160.075928,308.036682 161.182724,305.207642 
	C165.461090,294.272278 168.667984,282.986115 174.934769,272.732849 
	C179.383347,265.454376 182.489380,257.249664 186.998413,249.876053 
	C188.118774,248.043961 189.404602,246.297943 190.759613,244.630356 
	C191.519485,243.695190 192.676788,243.132736 193.857117,243.952255 
	C194.962479,244.719757 195.132812,245.977432 194.591721,247.091034 
	C192.853836,250.667786 191.879730,254.727356 188.880203,257.544312 
	C186.151489,260.106903 184.847931,263.172729 184.507980,267.170898 
z"/>
<path fill="#000000" opacity="1.000000" stroke="none" 
	d="
M199.614395,523.208496 
	C198.123001,515.283569 199.791122,513.184814 206.966919,512.927856 
	C211.103394,512.779785 213.217773,514.306885 213.166290,518.643799 
	C213.079346,525.966064 213.193832,533.290588 213.128601,540.613342 
	C213.109665,542.736816 213.275986,545.331238 210.479248,545.873108 
	C207.453186,546.459290 205.776993,544.147339 204.896271,541.830078 
	C202.651962,535.925049 200.881058,529.851196 199.614395,523.208496 
z"/>
<path fill="#000000" opacity="1.000000" stroke="none" 
	d="
M723.721313,593.703125 
	C711.388062,608.983887 699.465210,624.142944 687.099609,638.931824 
	C681.400024,645.748291 676.761230,653.552673 669.410339,658.991089 
	C670.576416,654.977722 671.791077,651.396423 675.270508,648.319580 
	C679.943665,644.187134 683.762024,638.996521 687.511902,633.937439 
	C691.170715,629.001343 694.203796,623.604431 698.924194,619.503967 
	C700.076355,618.503113 700.846985,617.174133 700.997375,615.621033 
	C701.262207,612.885986 702.970825,610.964355 704.924500,609.473755 
	C715.912781,601.089722 724.009094,590.391785 731.422363,578.816711 
	C736.382446,571.071899 744.398865,565.688354 750.493591,558.662598 
	C742.929016,571.267029 733.147095,582.124756 723.721313,593.703125 
z"/>
<path fill="#000000" opacity="1.000000" stroke="none" 
	d="
M863.581177,635.016602 
	C857.194397,647.677490 844.704102,663.557129 839.124756,666.166504 
	C838.100098,664.457336 839.489868,663.339539 840.218018,662.192322 
	C844.637268,655.229919 847.576355,647.805298 847.926575,639.455261 
	C848.084839,635.684265 849.175293,633.245850 853.783447,635.454285 
	C856.430603,636.723083 858.331970,634.028992 860.617554,633.264160 
	C861.937622,632.822510 864.474548,630.508179 863.581177,635.016602 
z"/>
<path fill="#000000" opacity="1.000000" stroke="none" 
	d="
M340.028503,136.716797 
	C334.364838,138.428268 328.882233,138.002365 323.440002,138.048065 
	C321.279755,138.066223 319.709747,137.260941 319.040466,134.885941 
	C318.366699,132.494934 319.395020,131.269104 321.197388,129.979797 
	C325.827576,126.667633 337.556061,128.704285 340.786133,133.514542 
	C341.553925,134.657959 341.456451,135.672623 340.028503,136.716797 
z"/>
<path fill="#000000" opacity="1.000000" stroke="none" 
	d="
M479.496887,174.183350 
	C483.350708,172.311752 487.066223,171.792984 490.957672,171.785583 
	C494.425812,171.778992 495.776062,173.365448 495.631256,176.666702 
	C495.497131,179.724426 495.720154,182.852249 491.197601,182.893539 
	C486.630005,182.935242 482.296570,182.712906 478.565887,179.451935 
	C475.975800,177.187958 476.238892,175.719040 479.496887,174.183350 
z"/>
<path fill="#000000" opacity="1.000000" stroke="none" 
	d="
M563.867188,191.107040 
	C565.387207,195.484268 565.971741,199.582535 564.993713,204.012436 
	C557.433167,203.352142 557.879578,194.410172 550.213623,193.227768 
	C555.416565,189.763382 559.296265,189.117645 563.867188,191.107040 
z"/>
<path fill="#000000" opacity="1.000000" stroke="none" 
	d="
M601.542236,739.666626 
	C600.446899,737.692627 600.421509,735.909058 602.311401,735.185791 
	C605.135376,734.105103 607.878174,732.342773 612.101379,732.945923 
	C609.673889,736.306519 609.705627,740.532959 606.118225,742.397400 
	C604.239136,743.374084 602.910583,741.324280 601.542236,739.666626 
z"/>
<path fill="#000000" opacity="1.000000" stroke="none" 
	d="
M740.952820,487.042572 
	C739.015686,487.759338 738.863403,487.738770 739.027161,486.526733 
	C739.721008,481.391113 741.306824,476.504486 743.215942,470.807159 
	C745.885071,477.272491 740.693970,481.560547 740.952820,487.042572 
z"/>
<path fill="#000000" opacity="1.000000" stroke="none" 
	d="
M807.085815,547.809814 
	C808.232727,552.318176 808.043884,553.075928 804.560791,558.483704 
	C805.630127,554.957092 803.004517,550.754822 807.085815,547.809814 
z"/>
<path fill="#000000" opacity="1.000000" stroke="none" 
	d="
M764.887695,541.187500 
	C763.472046,543.674500 762.464844,546.137268 759.073364,547.195312 
	C760.000183,542.693054 762.383423,540.026245 765.367981,537.617126 
	C766.604919,539.071655 765.259949,539.899902 764.887695,541.187500 
z"/>
<path fill="#000000" opacity="1.000000" stroke="none" 
	d="
M242.542740,620.239502 
	C241.557190,618.757263 240.677383,617.562500 241.568588,615.986694 
	C244.280762,615.325256 245.105026,617.131958 245.720428,619.010437 
	C246.063644,620.058167 246.319565,621.413025 244.956223,621.959412 
	C243.797089,622.424011 243.342010,621.221924 242.542740,620.239502 
z"/>
</svg>