<svg version="1.1" id="Layer_1" xmlns="http://www.w3.org/2000/svg" xmlns:xlink="http://www.w3.org/1999/xlink" x="0px" y="0px"
	 width="100%" viewBox="0 0 864 486" enable-background="new 0 0 864 486" xml:space="preserve">
<path fill="#F6563C" opacity="1.000000" stroke="none" 
	d="
M616.000000,487.000000 
	C410.666718,487.000000 205.833405,487.000000 1.000082,487.000000 
	C1.000055,325.000061 1.000055,163.000137 1.000027,1.000148 
	C288.999878,1.000098 576.999756,1.000098 864.999756,1.000049 
	C864.999817,162.999863 864.999817,324.999725 864.999878,486.999786 
	C782.166687,487.000000 699.333313,487.000000 616.000000,487.000000 
M379.048523,438.900726 
	C397.725708,438.853088 416.402863,438.805481 435.999420,438.885193 
	C562.582886,438.885193 689.166321,438.885193 815.913940,438.885193 
	C815.913940,419.600433 815.913940,400.904053 815.913940,381.812286 
	C801.361694,381.812286 787.224060,381.860382 773.086975,381.790344 
	C766.773987,381.759094 760.462219,381.490448 754.263245,380.510681 
	C754.263245,362.118134 754.263245,343.725586 754.263245,324.813171 
	C734.936340,324.813171 716.212585,324.813171 697.265991,323.922882 
	C697.210327,321.760529 697.106262,319.598145 697.106018,317.435791 
	C697.097412,248.799026 697.098938,180.162247 697.098938,111.525475 
	C697.098938,109.385574 697.098938,107.245667 697.098938,104.481186 
	C694.205322,104.481186 691.743408,104.481186 689.281494,104.481186 
	C496.365509,104.481186 303.449554,104.482292 110.533577,104.467049 
	C108.386505,104.466881 106.239441,104.253708 104.135559,103.180145 
	C104.143379,86.849129 104.169647,70.518089 104.149483,54.187111 
	C104.141930,48.074169 103.862869,47.817375 97.560585,47.806709 
	C83.065659,47.782169 68.568222,47.944130 54.077087,47.707157 
	C49.284142,47.628777 47.654305,49.288673 47.722870,54.048706 
	C47.941227,69.207718 47.966396,84.374054 47.724628,99.532104 
	C47.660957,103.524040 49.149715,104.247063 52.649673,104.216599 
	C69.812508,104.067207 86.977043,104.113945 104.458588,104.970757 
	C104.458588,197.068924 104.458588,289.167084 104.458588,381.808990 
	C107.131256,381.808990 109.087166,381.806366 111.043068,381.809387 
	C146.700424,381.864838 182.357788,381.920929 218.148529,382.469238 
	C218.237808,384.288361 218.400818,386.107300 218.404755,387.926605 
	C218.436737,402.711639 218.329971,417.498047 218.500412,432.281311 
	C218.575302,438.775513 218.970673,438.918182 225.435455,438.952179 
	C228.263168,438.967072 231.091003,438.961517 233.918793,438.958984 
	C281.989746,438.915771 330.060699,438.871552 379.048523,438.900726 
z"/>
<path fill="#E8E9E8" opacity="1.000000" stroke="none" 
	d="
M218.015152,381.976868 
	C182.357788,381.920929 146.700424,381.864838 111.043068,381.809387 
	C109.087166,381.806366 107.131256,381.808990 104.458588,381.808990 
	C104.458588,289.167084 104.458588,197.068924 104.257370,104.512939 
	C104.056152,104.055115 104.092377,104.139969 104.092377,104.139969 
	C106.239441,104.253708 108.386505,104.466881 110.533577,104.467049 
	C303.449554,104.482292 496.365509,104.481186 689.281494,104.481186 
	C691.743408,104.481186 694.205322,104.481186 697.098938,104.481186 
	C697.098938,107.245667 697.098938,109.385574 697.098938,111.525475 
	C697.098938,180.162247 697.097412,248.799026 697.106018,317.435791 
	C697.106262,319.598145 697.210327,321.760529 697.243286,324.825928 
	C697.132874,331.132111 697.045166,336.535248 696.599365,342.144745 
	C693.475281,342.665222 690.669434,342.780487 687.949585,343.325287 
	C668.524353,347.216156 654.790466,367.810669 658.215820,387.792480 
	C661.735962,408.327606 681.121887,423.125305 701.004944,420.454376 
	C721.308899,417.726929 734.199524,403.700073 736.682068,382.061340 
	C742.805237,381.776367 748.477539,381.552948 754.149902,381.329529 
	C760.462219,381.490448 766.773987,381.759094 773.086975,381.790344 
	C787.224060,381.860382 801.361694,381.812286 815.913940,381.812286 
	C815.913940,400.904053 815.913940,419.600433 815.913940,438.885193 
	C689.166321,438.885193 562.582886,438.885193 435.511414,438.369690 
	C435.003174,421.086548 434.945282,404.318787 434.994446,387.551392 
	C435.004333,384.178833 434.633179,381.781158 430.272858,381.828247 
	C412.842438,382.016357 395.409698,381.988647 377.514557,381.973083 
	C345.641052,381.874634 314.230835,381.816162 282.820587,381.822815 
	C261.218781,381.827362 239.616959,381.922302 218.015152,381.976868 
M363.803436,326.451477 
	C363.803436,320.329895 363.803436,314.208313 363.803436,307.844116 
	C291.926483,307.844116 220.618149,307.844116 149.458466,307.844116 
	C149.458466,317.707581 149.458466,327.095734 149.458466,336.344330 
	C221.092285,336.344330 292.283966,336.344330 363.803375,336.344330 
	C363.803375,333.067719 363.803375,330.248322 363.803436,326.451477 
M503.768219,169.212723 
	C496.790314,176.614365 495.722748,186.636612 501.099243,194.269119 
	C506.878296,202.473114 514.657593,203.316757 529.059509,197.301315 
	C530.777222,209.068039 522.993530,212.521652 502.161713,208.984634 
	C501.870911,210.485550 501.578705,211.993607 501.046631,214.739685 
	C507.200714,215.336258 512.787476,216.624893 518.261536,216.253250 
	C529.722229,215.475159 535.576172,208.719864 535.698059,197.232147 
	C535.793518,188.234665 535.730957,179.235336 535.706238,170.236908 
	C535.701904,168.650146 535.538208,167.063797 535.448059,165.477264 
	C534.992249,165.111755 534.536377,164.746246 534.080566,164.380722 
	C532.043823,165.755676 530.007080,167.130615 527.674377,168.705338 
	C520.480347,163.702087 512.457703,162.902084 503.768219,169.212723 
M377.680176,166.472473 
	C370.972809,163.408051 364.786896,164.623749 360.220856,168.199921 
	C357.518860,166.710495 355.536957,165.617996 352.624298,164.012451 
	C352.624298,177.356415 352.624298,189.062469 352.624298,200.880096 
	C354.573059,200.880096 356.148376,200.880096 358.220581,200.880096 
	C358.220581,194.617889 358.170685,188.657013 358.233002,182.697296 
	C358.313843,174.968109 362.291565,170.478470 368.983307,170.429703 
	C375.519653,170.382065 378.866974,174.422775 378.934082,182.564575 
	C378.984467,188.675430 378.944031,194.787018 378.944031,201.215118 
	C381.219513,201.108215 382.813965,201.033295 384.924957,200.934097 
	C384.924957,196.640701 384.924957,192.680878 384.924957,188.721054 
	C384.924957,175.030945 387.624664,170.330521 395.444397,170.405777 
	C402.870514,170.477234 405.017365,174.493408 405.017395,188.314148 
	C405.017426,192.435028 405.017395,196.555908 405.017395,200.811310 
	C407.283600,200.811310 408.977112,200.811310 410.964691,200.811310 
	C410.964691,192.799530 411.233398,185.152695 410.887421,177.533768 
	C410.556427,170.244476 405.199982,165.439697 397.867706,164.878937 
	C391.794556,164.414474 387.016693,166.761627 383.552490,171.416183 
	C381.562439,169.678299 379.947388,168.267899 377.680176,166.472473 
M148.150497,153.963852 
	C148.155975,163.450180 148.114716,172.936844 148.181213,182.422745 
	C148.237823,190.494904 151.594971,196.709869 159.295502,199.708618 
	C166.329971,202.447983 173.649307,202.635834 180.757019,199.800659 
	C187.905121,196.949371 192.027802,191.667084 192.126022,183.785706 
	C192.252518,173.635452 192.211655,163.482849 192.189606,153.331375 
	C192.187607,152.407654 191.798462,151.484787 191.526489,150.285370 
	C189.703857,150.400543 188.118240,150.500748 186.034653,150.632416 
	C186.034653,152.793365 186.035339,154.582687 186.034531,156.372009 
	C186.030655,165.025604 186.030182,173.679214 186.020905,182.332809 
	C186.014725,188.090195 183.576584,192.958496 178.062225,194.254211 
	C173.125748,195.414154 167.540863,195.352051 162.552002,194.324417 
	C157.435989,193.270599 154.749435,188.863037 154.644165,183.457153 
	C154.498535,175.979156 154.514023,168.497894 154.474472,161.017975 
	C154.456329,157.588028 154.471390,154.157913 154.471390,149.845444 
	C151.654037,151.000641 148.465759,148.601761 148.150497,153.963852 
M239.732193,198.362320 
	C246.430542,193.183990 249.141571,185.952209 246.353455,178.385574 
	C240.392456,162.207977 228.948532,161.813217 215.513062,169.589828 
	C215.235367,168.185013 214.963226,166.808228 214.628906,165.116928 
	C212.703049,165.403442 211.124771,165.638260 209.435883,165.889511 
	C209.435883,182.674454 209.435883,199.093658 209.435883,215.683380 
	C211.417343,215.683380 213.112228,215.683380 215.381409,215.683380 
	C215.381409,209.135239 215.381409,202.947861 215.381409,196.148346 
	C223.239883,202.584793 230.944748,203.481537 239.732193,198.362320 
M179.648010,228.574036 
	C169.504990,227.794891 159.361984,227.015747 149.159622,226.232056 
	C149.159622,244.255035 149.159622,260.821899 149.159622,277.399658 
	C151.240433,277.399658 152.945953,277.399658 155.148560,277.399658 
	C155.148560,272.075531 155.148560,267.155884 155.148560,261.818604 
	C160.946732,261.818604 166.251511,261.970154 171.544495,261.784515 
	C180.356949,261.475433 186.551041,256.707977 188.555984,248.982727 
	C190.659286,240.878555 187.561264,233.290329 179.648010,228.574036 
M314.144653,243.431808 
	C306.371490,247.931198 303.780365,254.951660 305.140594,263.391632 
	C306.385071,271.112976 311.481842,276.117126 318.970398,277.286652 
	C324.025696,278.076141 329.449646,277.106720 334.621857,276.339142 
	C338.194977,275.808868 339.067230,273.372803 337.001129,270.218903 
	C320.028381,274.142578 313.570862,272.188751 311.314087,262.027649 
	C320.798981,262.027649 330.175568,262.027649 339.732361,262.027649 
	C340.985596,255.147827 339.556274,249.521805 334.554535,245.364792 
	C328.611816,240.425735 321.830475,240.183426 314.144653,243.431808 
M305.118439,170.629883 
	C299.373840,177.984085 298.512299,185.257263 302.540497,192.393326 
	C306.124298,198.742188 313.787537,202.532028 321.150543,201.596848 
	C329.431366,200.545120 335.372742,195.676910 337.485687,188.212311 
	C339.649078,180.569305 336.657562,172.409424 330.086121,168.028687 
	C322.669495,163.084549 313.263794,163.887436 305.118439,170.629883 
M234.804016,270.585602 
	C243.634445,280.853699 259.111328,280.618561 266.152924,270.109375 
	C271.181671,262.604248 270.060120,252.374924 263.550018,246.369354 
	C256.635345,239.990540 245.544861,239.527847 238.275406,245.314926 
	C230.775589,251.285400 229.262604,260.847198 234.804016,270.585602 
M450.951477,175.541428 
	C450.951477,183.976212 450.951477,192.410980 450.951477,200.905701 
	C453.173615,200.905701 454.765045,200.905701 456.920258,200.905701 
	C456.920258,194.525742 456.886414,188.412903 456.928864,182.300583 
	C456.980927,174.802094 461.085815,170.413925 467.976868,170.400375 
	C474.544434,170.387466 477.917572,174.227631 477.976288,181.903030 
	C478.024353,188.183319 477.986084,194.464279 477.986084,201.163956 
	C480.255646,201.057175 481.950867,200.977417 483.958801,200.882950 
	C483.958801,193.544083 484.038971,186.748703 483.940369,179.955917 
	C483.785278,169.272232 476.132812,162.931152 465.746979,165.169647 
	C462.795654,165.805725 460.114380,167.694702 457.131439,169.092438 
	C457.494232,164.528946 454.685303,164.787827 450.951477,165.605881 
	C450.951477,168.652145 450.951477,171.606598 450.951477,175.541428 
M447.361542,277.275879 
	C452.443268,275.722900 455.251099,272.369843 454.990997,266.977814 
	C454.730560,261.579437 450.926819,259.290466 446.309296,258.026978 
	C443.586945,257.282074 440.608612,257.187988 438.102325,256.029205 
	C436.143646,255.123611 434.734344,253.029724 433.080933,251.463821 
	C435.007507,249.956436 436.776062,247.495148 438.894226,247.144180 
	C443.050354,246.455536 447.401154,246.941681 452.395233,246.941681 
	C453.597534,244.965637 453.476227,242.603653 449.680634,242.229950 
	C445.264191,241.795151 440.702148,241.394852 436.356995,242.030411 
	C430.337250,242.910965 426.996216,247.040070 427.041260,252.024139 
	C427.083893,256.742188 429.878876,259.679016 435.897949,261.259125 
	C439.267517,262.143707 442.772614,262.669647 445.974945,263.958008 
	C447.310852,264.495453 448.819794,266.615509 448.785828,267.979523 
	C448.751862,269.344696 447.148071,271.288269 445.769592,271.857422 
	C443.710083,272.707672 441.214569,272.956940 438.959961,272.774963 
	C435.394012,272.487152 431.873993,271.630463 428.345917,271.016449 
	C427.442017,275.943329 427.383728,276.378937 431.748932,276.963135 
	C436.624847,277.615662 441.620667,277.372192 447.361542,277.275879 
M351.970703,261.260803 
	C353.984497,274.617523 365.793945,281.283844 379.743011,277.128601 
	C383.665894,275.960022 383.841400,274.065063 381.898132,270.949493 
	C373.967865,272.794281 366.107483,274.542877 360.218109,267.015442 
	C357.122192,263.058411 356.967865,256.953125 359.867249,252.927414 
	C365.631378,244.924042 373.650330,246.612061 383.457764,248.928543 
	C382.061249,246.070435 381.630524,243.350189 380.364044,242.879730 
	C366.873108,237.868271 351.317230,244.882156 351.970703,261.260803 
M288.408600,199.996124 
	C288.918335,198.288635 289.428070,196.581131 290.186951,194.039017 
	C280.911530,196.406204 272.952026,198.087143 266.968231,190.383408 
	C263.984558,186.542114 263.862610,180.214386 266.761749,176.299759 
	C272.585693,168.435806 280.616364,170.178040 288.457703,171.953598 
	C290.441589,168.086792 289.168823,165.968506 285.243683,165.729004 
	C280.991943,165.469604 276.552734,164.893692 272.480408,165.774384 
	C263.413208,167.735291 258.534088,174.740738 258.823517,183.975769 
	C259.097107,192.705566 264.588959,199.632751 273.448364,200.933014 
	C278.044250,201.607559 282.899017,200.518082 288.408600,199.996124 
M410.433685,246.916656 
	C416.642731,246.883789 416.642731,246.883789 415.761658,241.760162 
	C412.435883,241.760162 409.014832,241.760162 404.975739,241.760162 
	C404.975739,237.692490 404.975739,234.131912 404.975739,230.197906 
	C402.749023,230.313293 401.172882,230.394974 399.371216,230.488327 
	C399.159698,234.425079 398.968262,237.987793 398.778748,241.515060 
	C396.495850,241.781738 394.731140,241.987885 393.034973,242.186020 
	C392.632660,246.261612 392.632660,246.261612 399.050629,247.691559 
	C399.050629,253.394440 399.025269,259.199493 399.056244,265.004272 
	C399.109802,275.035522 403.880219,279.106171 413.930298,278.005920 
	C417.817932,277.580261 418.905823,275.995270 417.021179,272.326813 
	C415.198242,272.514343 413.398590,272.835022 411.595367,272.856659 
	C407.878510,272.901337 405.369965,271.063782 405.236053,267.296143 
	C405.001282,260.689758 405.170502,254.069061 405.170502,247.243942 
	C406.939728,247.104080 408.231781,247.001938 410.433685,246.916656 
M276.176544,287.586975 
	C275.160248,288.470001 274.143951,289.353027 273.127625,290.236023 
	C273.946136,291.084320 274.621674,292.410645 275.605865,292.704987 
	C283.202759,294.977112 289.690186,289.933350 289.880951,281.311127 
	C290.127502,270.166992 289.966248,259.013855 289.979736,247.864594 
	C289.982056,245.946655 289.980072,244.028717 289.980072,241.771011 
	C287.596588,241.899246 286.012085,241.984497 283.984161,242.093597 
	C283.984161,244.244812 283.984833,246.042450 283.984039,247.840073 
	C283.979370,258.656647 283.996338,269.473297 283.959137,280.289795 
	C283.943207,284.921082 282.316071,288.126831 276.176544,287.586975 
M208.961060,254.224304 
	C210.748413,246.731857 216.648270,246.611420 223.276703,247.161911 
	C222.809494,245.009338 222.446014,242.209702 222.167160,242.218094 
	C217.812973,242.349319 213.469696,242.843307 208.551956,243.307648 
	C207.384537,242.982208 205.261490,242.390381 202.743195,241.688354 
	C202.743195,254.317123 202.743195,265.869080 202.743195,277.626343 
	C204.700455,277.626343 206.302490,277.626343 208.826660,277.626343 
	C208.826660,269.960358 208.826660,262.526001 208.961060,254.224304 
M433.977509,191.453827 
	C433.977509,182.863205 433.977509,174.272568 433.977509,165.589096 
	C431.677704,165.589096 429.989807,165.589096 428.279083,165.589096 
	C428.279083,177.557632 428.279083,189.122299 428.279083,200.762482 
	C430.276703,200.762482 431.966034,200.762482 433.977509,200.762482 
	C433.977509,197.715958 433.977509,195.077118 433.977509,191.453827 
M283.167542,230.350082 
	C284.895599,231.329163 286.623688,232.308243 288.351746,233.287338 
	C288.995544,231.783325 290.046570,230.296249 290.110107,228.768127 
	C290.141541,228.012451 288.029388,226.327682 287.450134,226.547455 
	C285.852264,227.153595 284.551178,228.542023 283.167542,230.350082 
M434.351288,154.232803 
	C433.152527,152.805130 432.112732,151.153107 430.641205,150.110352 
	C430.281433,149.855423 427.899078,151.400986 427.554352,152.474442 
	C427.208252,153.552383 428.270874,156.215195 428.670471,156.205963 
	C430.498413,156.163803 432.310333,155.427231 434.351288,154.232803 
z"/>
<path fill="#F98876" opacity="1.000000" stroke="none" 
	d="
M218.081848,382.223053 
	C239.616959,381.922302 261.218781,381.827362 282.820587,381.822815 
	C314.230835,381.816162 345.641052,381.874634 377.503235,382.438232 
	C378.013977,401.589966 378.072815,420.208771 378.131653,438.827606 
	C330.060699,438.871552 281.989746,438.915771 233.918793,438.958984 
	C231.091003,438.961517 228.263168,438.967072 225.435455,438.952179 
	C218.970673,438.918182 218.575302,438.775513 218.500412,432.281311 
	C218.329971,417.498047 218.436737,402.711639 218.404755,387.926605 
	C218.400818,386.107300 218.237808,384.288361 218.081848,382.223053 
z"/>
<path fill="#FBBBB1" opacity="1.000000" stroke="none" 
	d="
M378.590088,438.864166 
	C378.072815,420.208771 378.013977,401.589966 377.966492,382.505981 
	C395.409698,381.988647 412.842438,382.016357 430.272858,381.828247 
	C434.633179,381.781158 435.004333,384.178833 434.994446,387.551392 
	C434.945282,404.318787 435.003174,421.086548 435.051697,438.306030 
	C416.402863,438.805481 397.725708,438.853088 378.590088,438.864166 
z"/>
<path fill="#F98876" opacity="1.000000" stroke="none" 
	d="
M104.098564,104.073257 
	C86.977043,104.113945 69.812508,104.067207 52.649673,104.216599 
	C49.149715,104.247063 47.660957,103.524040 47.724628,99.532104 
	C47.966396,84.374054 47.941227,69.207718 47.722870,54.048706 
	C47.654305,49.288673 49.284142,47.628777 54.077087,47.707157 
	C68.568222,47.944130 83.065659,47.782169 97.560585,47.806709 
	C103.862869,47.817375 104.141930,48.074169 104.149483,54.187111 
	C104.169647,70.518089 104.143379,86.849129 104.113968,103.660057 
	C104.092377,104.139969 104.056152,104.055115 104.098564,104.073257 
z"/>
<path fill="#9DB9EA" opacity="1.000000" stroke="none" 
	d="
M754.206543,380.920105 
	C748.477539,381.552948 742.805237,381.776367 736.619873,381.615021 
	C734.867065,375.765137 734.486694,369.911774 732.226135,364.907745 
	C725.468628,349.949066 712.841187,343.266876 696.957458,341.938354 
	C697.045166,336.535248 697.132874,331.132111 697.354736,325.271088 
	C716.212585,324.813171 734.936340,324.813171 754.263245,324.813171 
	C754.263245,343.725586 754.263245,362.118134 754.206543,380.920105 
z"/>
<path fill="#3C71EF" opacity="1.000000" stroke="none" 
	d="
M363.803406,326.940216 
	C363.803375,330.248322 363.803375,333.067719 363.803375,336.344330 
	C292.283966,336.344330 221.092285,336.344330 149.458466,336.344330 
	C149.458466,327.095734 149.458466,317.707581 149.458466,307.844116 
	C220.618149,307.844116 291.926483,307.844116 363.803436,307.844116 
	C363.803436,314.208313 363.803436,320.329895 363.803406,326.940216 
z"/>
<path fill="#396FEF" opacity="1.000000" stroke="none" 
	d="
M696.599365,342.144745 
	C712.841187,343.266876 725.468628,349.949066 732.226135,364.907745 
	C734.486694,369.911774 734.867065,375.765137 736.169067,381.676575 
	C734.199524,403.700073 721.308899,417.726929 701.004944,420.454376 
	C681.121887,423.125305 661.735962,408.327606 658.215820,387.792480 
	C654.790466,367.810669 668.524353,347.216156 687.949585,343.325287 
	C690.669434,342.780487 693.475281,342.665222 696.599365,342.144745 
M692.135010,364.086182 
	C692.135742,370.402008 692.145630,376.717896 692.133484,383.033691 
	C692.127380,386.210083 693.398926,388.071442 696.855896,388.019836 
	C701.342468,387.952850 705.867920,388.325043 710.297913,387.819031 
	C711.834412,387.643524 713.135925,385.411560 714.544800,384.118866 
	C713.123657,383.044830 711.802246,381.258484 710.260925,381.042694 
	C706.890991,380.570953 703.409424,380.896759 699.417114,380.896759 
	C699.417114,374.880585 699.669861,369.566711 699.274475,364.301514 
	C699.143188,362.553040 697.346863,360.929596 696.311768,359.249023 
	C694.925842,360.573792 693.539917,361.898529 692.135010,364.086182 
z"/>
<path fill="#F65F47" opacity="1.000000" stroke="none" 
	d="
M504.051147,168.976105 
	C512.457703,162.902084 520.480347,163.702087 527.674377,168.705338 
	C530.007080,167.130615 532.043823,165.755676 534.080566,164.380722 
	C534.536377,164.746246 534.992249,165.111755 535.448059,165.477264 
	C535.538208,167.063797 535.701904,168.650146 535.706238,170.236908 
	C535.730957,179.235336 535.793518,188.234665 535.698059,197.232147 
	C535.576172,208.719864 529.722229,215.475159 518.261536,216.253250 
	C512.787476,216.624893 507.200714,215.336258 501.046631,214.739685 
	C501.578705,211.993607 501.870911,210.485550 502.161713,208.984634 
	C522.993530,212.521652 530.777222,209.068039 529.059509,197.301315 
	C514.657593,203.316757 506.878296,202.473114 501.099243,194.269119 
	C495.722748,186.636612 496.790314,176.614365 504.051147,168.976105 
M529.663757,184.198792 
	C529.279663,175.303253 523.692566,169.692093 515.694519,170.169373 
	C508.057800,170.625092 503.051666,176.927765 503.876556,185.048035 
	C504.479279,190.980911 509.066315,195.588440 514.893921,196.114594 
	C522.478943,196.799438 527.352295,193.092590 529.663757,184.198792 
z"/>
<path fill="#F65C43" opacity="1.000000" stroke="none" 
	d="
M378.006256,166.664978 
	C379.947388,168.267899 381.562439,169.678299 383.552490,171.416183 
	C387.016693,166.761627 391.794556,164.414474 397.867706,164.878937 
	C405.199982,165.439697 410.556427,170.244476 410.887421,177.533768 
	C411.233398,185.152695 410.964691,192.799530 410.964691,200.811310 
	C408.977112,200.811310 407.283600,200.811310 405.017395,200.811310 
	C405.017395,196.555908 405.017426,192.435028 405.017395,188.314148 
	C405.017365,174.493408 402.870514,170.477234 395.444397,170.405777 
	C387.624664,170.330521 384.924957,175.030945 384.924957,188.721054 
	C384.924957,192.680878 384.924957,196.640701 384.924957,200.934097 
	C382.813965,201.033295 381.219513,201.108215 378.944031,201.215118 
	C378.944031,194.787018 378.984467,188.675430 378.934082,182.564575 
	C378.866974,174.422775 375.519653,170.382065 368.983307,170.429703 
	C362.291565,170.478470 358.313843,174.968109 358.233002,182.697296 
	C358.170685,188.657013 358.220581,194.617889 358.220581,200.880096 
	C356.148376,200.880096 354.573059,200.880096 352.624298,200.880096 
	C352.624298,189.062469 352.624298,177.356415 352.624298,164.012451 
	C355.536957,165.617996 357.518860,166.710495 360.220856,168.199921 
	C364.786896,164.623749 370.972809,163.408051 378.006256,166.664978 
z"/>
<path fill="#F65F46" opacity="1.000000" stroke="none" 
	d="
M148.156036,153.520294 
	C148.465759,148.601761 151.654037,151.000641 154.471390,149.845444 
	C154.471390,154.157913 154.456329,157.588028 154.474472,161.017975 
	C154.514023,168.497894 154.498535,175.979156 154.644165,183.457153 
	C154.749435,188.863037 157.435989,193.270599 162.552002,194.324417 
	C167.540863,195.352051 173.125748,195.414154 178.062225,194.254211 
	C183.576584,192.958496 186.014725,188.090195 186.020905,182.332809 
	C186.030182,173.679214 186.030655,165.025604 186.034531,156.372009 
	C186.035339,154.582687 186.034653,152.793365 186.034653,150.632416 
	C188.118240,150.500748 189.703857,150.400543 191.526489,150.285370 
	C191.798462,151.484787 192.187607,152.407654 192.189606,153.331375 
	C192.211655,163.482849 192.252518,173.635452 192.126022,183.785706 
	C192.027802,191.667084 187.905121,196.949371 180.757019,199.800659 
	C173.649307,202.635834 166.329971,202.447983 159.295502,199.708618 
	C151.594971,196.709869 148.237823,190.494904 148.181213,182.422745 
	C148.114716,172.936844 148.155975,163.450180 148.156036,153.520294 
z"/>
<path fill="#F65E45" opacity="1.000000" stroke="none" 
	d="
M239.432968,198.579544 
	C230.944748,203.481537 223.239883,202.584793 215.381409,196.148346 
	C215.381409,202.947861 215.381409,209.135239 215.381409,215.683380 
	C213.112228,215.683380 211.417343,215.683380 209.435883,215.683380 
	C209.435883,199.093658 209.435883,182.674454 209.435883,165.889511 
	C211.124771,165.638260 212.703049,165.403442 214.628906,165.116928 
	C214.963226,166.808228 215.235367,168.185013 215.513062,169.589828 
	C228.948532,161.813217 240.392456,162.207977 246.353455,178.385574 
	C249.141571,185.952209 246.430542,193.183990 239.432968,198.579544 
M223.576004,195.468689 
	C229.108215,196.972549 234.211044,196.463013 238.127518,191.827148 
	C241.546249,187.780472 241.986710,183.057571 240.170090,178.220810 
	C238.209518,173.000748 233.035339,169.819809 227.609344,170.168167 
	C221.729141,170.545685 216.846817,174.640442 215.482544,180.338776 
	C214.047089,186.334518 216.577576,191.408340 223.576004,195.468689 
z"/>
<path fill="#F65A41" opacity="1.000000" stroke="none" 
	d="
M180.001617,228.735016 
	C187.561264,233.290329 190.659286,240.878555 188.555984,248.982727 
	C186.551041,256.707977 180.356949,261.475433 171.544495,261.784515 
	C166.251511,261.970154 160.946732,261.818604 155.148560,261.818604 
	C155.148560,267.155884 155.148560,272.075531 155.148560,277.399658 
	C152.945953,277.399658 151.240433,277.399658 149.159622,277.399658 
	C149.159622,260.821899 149.159622,244.255035 149.159622,226.232056 
	C159.361984,227.015747 169.504990,227.794891 180.001617,228.735016 
M182.378937,247.619873 
	C183.517303,239.633087 180.688797,233.946045 174.077271,233.126801 
	C167.920029,232.363861 161.593918,232.963852 155.337646,232.963852 
	C155.337646,240.685684 155.337646,248.224854 155.337646,256.025421 
	C161.162476,256.025421 166.630951,256.262848 172.068497,255.954575 
	C176.917358,255.679703 180.498276,253.184708 182.378937,247.619873 
z"/>
<path fill="#F65D44" opacity="1.000000" stroke="none" 
	d="
M314.488525,243.264511 
	C321.830475,240.183426 328.611816,240.425735 334.554535,245.364792 
	C339.556274,249.521805 340.985596,255.147827 339.732361,262.027649 
	C330.175568,262.027649 320.798981,262.027649 311.314087,262.027649 
	C313.570862,272.188751 320.028381,274.142578 337.001129,270.218903 
	C339.067230,273.372803 338.194977,275.808868 334.621857,276.339142 
	C329.449646,277.106720 324.025696,278.076141 318.970398,277.286652 
	C311.481842,276.117126 306.385071,271.112976 305.140594,263.391632 
	C303.780365,254.951660 306.371490,247.931198 314.488525,243.264511 
M317.710175,257.084045 
	C323.107300,257.084045 328.504395,257.084045 333.924011,257.084045 
	C333.522400,250.622620 330.094543,247.266769 324.159882,246.937439 
	C317.161560,246.549088 312.770233,249.874008 311.411346,257.084015 
	C313.258423,257.084015 315.020294,257.084015 317.710175,257.084045 
z"/>
<path fill="#F65D44" opacity="1.000000" stroke="none" 
	d="
M305.374603,170.373077 
	C313.263794,163.887436 322.669495,163.084549 330.086121,168.028687 
	C336.657562,172.409424 339.649078,180.569305 337.485687,188.212311 
	C335.372742,195.676910 329.431366,200.545120 321.150543,201.596848 
	C313.787537,202.532028 306.124298,198.742188 302.540497,192.393326 
	C298.512299,185.257263 299.373840,177.984085 305.374603,170.373077 
M329.906372,175.818176 
	C324.918152,170.236343 319.021027,168.820465 313.063995,171.774353 
	C307.971558,174.299515 305.095947,180.339905 306.394928,185.982529 
	C307.580292,191.131439 310.764679,194.593521 315.899872,195.732452 
	C321.080750,196.881485 325.873077,195.784927 329.306732,191.378143 
	C332.949646,186.702789 333.000610,181.652115 329.906372,175.818176 
z"/>
<path fill="#F65E45" opacity="1.000000" stroke="none" 
	d="
M234.587494,270.287903 
	C229.262604,260.847198 230.775589,251.285400 238.275406,245.314926 
	C245.544861,239.527847 256.635345,239.990540 263.550018,246.369354 
	C270.060120,252.374924 271.181671,262.604248 266.152924,270.109375 
	C259.111328,280.618561 243.634445,280.853699 234.587494,270.287903 
M250.441040,272.747284 
	C251.426117,272.582397 252.426559,272.480194 253.393799,272.242645 
	C260.723999,270.442566 264.819885,263.407104 262.832855,256.070343 
	C261.074005,249.575912 253.957977,245.572754 247.031342,247.181122 
	C240.115036,248.787064 235.866119,255.951492 237.720947,263.013855 
	C239.325195,269.122223 243.692841,271.932434 250.441040,272.747284 
z"/>
<path fill="#F65B41" opacity="1.000000" stroke="none" 
	d="
M450.951477,175.051239 
	C450.951477,171.606598 450.951477,168.652145 450.951477,165.605881 
	C454.685303,164.787827 457.494232,164.528946 457.131439,169.092438 
	C460.114380,167.694702 462.795654,165.805725 465.746979,165.169647 
	C476.132812,162.931152 483.785278,169.272232 483.940369,179.955917 
	C484.038971,186.748703 483.958801,193.544083 483.958801,200.882950 
	C481.950867,200.977417 480.255646,201.057175 477.986084,201.163956 
	C477.986084,194.464279 478.024353,188.183319 477.976288,181.903030 
	C477.917572,174.227631 474.544434,170.387466 467.976868,170.400375 
	C461.085815,170.413925 456.980927,174.802094 456.928864,182.300583 
	C456.886414,188.412903 456.920258,194.525742 456.920258,200.905701 
	C454.765045,200.905701 453.173615,200.905701 450.951477,200.905701 
	C450.951477,192.410980 450.951477,183.976212 450.951477,175.051239 
z"/>
<path fill="#F65F47" opacity="1.000000" stroke="none" 
	d="
M446.962921,277.397278 
	C441.620667,277.372192 436.624847,277.615662 431.748932,276.963135 
	C427.383728,276.378937 427.442017,275.943329 428.345917,271.016449 
	C431.873993,271.630463 435.394012,272.487152 438.959961,272.774963 
	C441.214569,272.956940 443.710083,272.707672 445.769592,271.857422 
	C447.148071,271.288269 448.751862,269.344696 448.785828,267.979523 
	C448.819794,266.615509 447.310852,264.495453 445.974945,263.958008 
	C442.772614,262.669647 439.267517,262.143707 435.897949,261.259125 
	C429.878876,259.679016 427.083893,256.742188 427.041260,252.024139 
	C426.996216,247.040070 430.337250,242.910965 436.356995,242.030411 
	C440.702148,241.394852 445.264191,241.795151 449.680634,242.229950 
	C453.476227,242.603653 453.597534,244.965637 452.395233,246.941681 
	C447.401154,246.941681 443.050354,246.455536 438.894226,247.144180 
	C436.776062,247.495148 435.007507,249.956436 433.080933,251.463837 
	C434.734344,253.029724 436.143646,255.123611 438.102325,256.029205 
	C440.608612,257.187988 443.586945,257.282074 446.309296,258.026978 
	C450.926819,259.290466 454.730560,261.579437 454.990997,266.977814 
	C455.251099,272.369843 452.443268,275.722900 446.962921,277.397278 
z"/>
<path fill="#F65F46" opacity="1.000000" stroke="none" 
	d="
M351.957886,260.825134 
	C351.317230,244.882156 366.873108,237.868271 380.364044,242.879730 
	C381.630524,243.350189 382.061249,246.070435 383.457764,248.928543 
	C373.650330,246.612061 365.631378,244.924042 359.867249,252.927414 
	C356.967865,256.953125 357.122192,263.058411 360.218109,267.015442 
	C366.107483,274.542877 373.967865,272.794281 381.898132,270.949493 
	C383.841400,274.065063 383.665894,275.960022 379.743011,277.128601 
	C365.793945,281.283844 353.984497,274.617523 351.957886,260.825134 
z"/>
<path fill="#F65F46" opacity="1.000000" stroke="none" 
	d="
M288.022705,200.110825 
	C282.899017,200.518082 278.044250,201.607559 273.448364,200.933014 
	C264.588959,199.632751 259.097107,192.705566 258.823517,183.975769 
	C258.534088,174.740738 263.413208,167.735291 272.480408,165.774384 
	C276.552734,164.893692 280.991943,165.469604 285.243683,165.729004 
	C289.168823,165.968506 290.441589,168.086792 288.457703,171.953598 
	C280.616364,170.178040 272.585693,168.435806 266.761749,176.299759 
	C263.862610,180.214386 263.984558,186.542114 266.968231,190.383408 
	C272.952026,198.087143 280.911530,196.406204 290.186951,194.039017 
	C289.428070,196.581131 288.918335,198.288635 288.022705,200.110825 
z"/>
<path fill="#F65E45" opacity="1.000000" stroke="none" 
	d="
M409.978760,246.908234 
	C408.231781,247.001938 406.939728,247.104080 405.170502,247.243942 
	C405.170502,254.069061 405.001282,260.689758 405.236053,267.296143 
	C405.369965,271.063782 407.878510,272.901337 411.595367,272.856659 
	C413.398590,272.835022 415.198242,272.514343 417.021179,272.326813 
	C418.905823,275.995270 417.817932,277.580261 413.930298,278.005920 
	C403.880219,279.106171 399.109802,275.035522 399.056244,265.004272 
	C399.025269,259.199493 399.050629,253.394440 399.050629,247.691559 
	C392.632660,246.261612 392.632660,246.261612 393.034973,242.186020 
	C394.731140,241.987885 396.495850,241.781738 398.778748,241.515060 
	C398.968262,237.987793 399.159698,234.425079 399.371216,230.488327 
	C401.172882,230.394974 402.749023,230.313293 404.975739,230.197906 
	C404.975739,234.131912 404.975739,237.692490 404.975739,241.760162 
	C409.014832,241.760162 412.435883,241.760162 415.761658,241.760162 
	C416.642731,246.883789 416.642731,246.883789 409.978760,246.908234 
z"/>
<path fill="#F65B42" opacity="1.000000" stroke="none" 
	d="
M276.548676,287.643097 
	C282.316071,288.126831 283.943207,284.921082 283.959137,280.289795 
	C283.996338,269.473297 283.979370,258.656647 283.984039,247.840073 
	C283.984833,246.042450 283.984161,244.244812 283.984161,242.093597 
	C286.012085,241.984497 287.596588,241.899246 289.980072,241.771011 
	C289.980072,244.028717 289.982056,245.946655 289.979736,247.864594 
	C289.966248,259.013855 290.127502,270.166992 289.880951,281.311127 
	C289.690186,289.933350 283.202759,294.977112 275.605865,292.704987 
	C274.621674,292.410645 273.946136,291.084320 273.127625,290.236023 
	C274.143951,289.353027 275.160248,288.470001 276.548676,287.643097 
z"/>
<path fill="#F5664E" opacity="1.000000" stroke="none" 
	d="
M208.893860,254.657959 
	C208.826660,262.526001 208.826660,269.960358 208.826660,277.626343 
	C206.302490,277.626343 204.700455,277.626343 202.743195,277.626343 
	C202.743195,265.869080 202.743195,254.317123 202.743195,241.688354 
	C205.261490,242.390381 207.384537,242.982208 208.551956,243.307648 
	C213.469696,242.843307 217.812973,242.349319 222.167160,242.218094 
	C222.446014,242.209702 222.809494,245.009338 223.276703,247.161911 
	C216.648270,246.611420 210.748413,246.731857 208.893860,254.657959 
z"/>
<path fill="#F65B41" opacity="1.000000" stroke="none" 
	d="
M433.977509,191.946045 
	C433.977509,195.077118 433.977509,197.715958 433.977509,200.762482 
	C431.966034,200.762482 430.276703,200.762482 428.279083,200.762482 
	C428.279083,189.122299 428.279083,177.557632 428.279083,165.589096 
	C429.989807,165.589096 431.677704,165.589096 433.977509,165.589096 
	C433.977509,174.272568 433.977509,182.863205 433.977509,191.946045 
z"/>
<path fill="#F5664E" opacity="1.000000" stroke="none" 
	d="
M283.150116,229.985565 
	C284.551178,228.542023 285.852264,227.153595 287.450134,226.547455 
	C288.029388,226.327682 290.141541,228.012451 290.110107,228.768127 
	C290.046570,230.296249 288.995544,231.783325 288.351746,233.287338 
	C286.623688,232.308243 284.895599,231.329163 283.150116,229.985565 
z"/>
<path fill="#F65F47" opacity="1.000000" stroke="none" 
	d="
M434.239624,154.586456 
	C432.310333,155.427231 430.498413,156.163803 428.670471,156.205963 
	C428.270874,156.215195 427.208252,153.552383 427.554352,152.474442 
	C427.899078,151.400986 430.281433,149.855423 430.641205,150.110352 
	C432.112732,151.153107 433.152527,152.805130 434.239624,154.586456 
z"/>
<path fill="#E2E6E9" opacity="1.000000" stroke="none" 
	d="
M692.144531,363.654724 
	C693.539917,361.898529 694.925842,360.573792 696.311768,359.249023 
	C697.346863,360.929596 699.143188,362.553040 699.274475,364.301514 
	C699.669861,369.566711 699.417114,374.880585 699.417114,380.896759 
	C703.409424,380.896759 706.890991,380.570953 710.260925,381.042694 
	C711.802246,381.258484 713.123657,383.044830 714.544800,384.118866 
	C713.135925,385.411560 711.834412,387.643524 710.297913,387.819031 
	C705.867920,388.325043 701.342468,387.952850 696.855896,388.019836 
	C693.398926,388.071442 692.127380,386.210083 692.133484,383.033691 
	C692.145630,376.717896 692.135742,370.402008 692.144531,363.654724 
z"/>
<path fill="#E8E6E5" opacity="1.000000" stroke="none" 
	d="
M529.602539,184.586044 
	C527.352295,193.092590 522.478943,196.799438 514.893921,196.114594 
	C509.066315,195.588440 504.479279,190.980911 503.876556,185.048035 
	C503.051666,176.927765 508.057800,170.625092 515.694519,170.169373 
	C523.692566,169.692093 529.279663,175.303253 529.602539,184.586044 
z"/>
<path fill="#E8E6E5" opacity="1.000000" stroke="none" 
	d="
M223.215485,195.294861 
	C216.577576,191.408340 214.047089,186.334518 215.482544,180.338776 
	C216.846817,174.640442 221.729141,170.545685 227.609344,170.168167 
	C233.035339,169.819809 238.209518,173.000748 240.170090,178.220810 
	C241.986710,183.057571 241.546249,187.780472 238.127518,191.827148 
	C234.211044,196.463013 229.108215,196.972549 223.215485,195.294861 
z"/>
<path fill="#E8E6E5" opacity="1.000000" stroke="none" 
	d="
M182.247009,247.991043 
	C180.498276,253.184708 176.917358,255.679703 172.068497,255.954575 
	C166.630951,256.262848 161.162476,256.025421 155.337646,256.025421 
	C155.337646,248.224854 155.337646,240.685684 155.337646,232.963852 
	C161.593918,232.963852 167.920029,232.363861 174.077271,233.126801 
	C180.688797,233.946045 183.517303,239.633087 182.247009,247.991043 
z"/>
<path fill="#E8E6E5" opacity="1.000000" stroke="none" 
	d="
M317.246155,257.084045 
	C315.020294,257.084015 313.258423,257.084015 311.411346,257.084015 
	C312.770233,249.874008 317.161560,246.549088 324.159882,246.937439 
	C330.094543,247.266769 333.522400,250.622620 333.924011,257.084045 
	C328.504395,257.084045 323.107300,257.084045 317.246155,257.084045 
z"/>
<path fill="#E8E6E5" opacity="1.000000" stroke="none" 
	d="
M330.107239,176.150604 
	C333.000610,181.652115 332.949646,186.702789 329.306732,191.378143 
	C325.873077,195.784927 321.080750,196.881485 315.899872,195.732452 
	C310.764679,194.593521 307.580292,191.131439 306.394928,185.982529 
	C305.095947,180.339905 307.971558,174.299515 313.063995,171.774353 
	C319.021027,168.820465 324.918152,170.236343 330.107239,176.150604 
z"/>
<path fill="#E8E6E5" opacity="1.000000" stroke="none" 
	d="
M250.047104,272.746521 
	C243.692841,271.932434 239.325195,269.122223 237.720947,263.013855 
	C235.866119,255.951492 240.115036,248.787064 247.031342,247.181122 
	C253.957977,245.572754 261.074005,249.575912 262.832855,256.070343 
	C264.819885,263.407104 260.723999,270.442566 253.393799,272.242645 
	C252.426559,272.480194 251.426117,272.582397 250.047104,272.746521 
z"/>
</svg>